<svg id="Layer_1" data-name="Layer 1" xmlns="http://www.w3.org/2000/svg" xmlns:xlink="http://www.w3.org/1999/xlink" viewBox="0 0 494 494"><defs><style>.cls-1{fill:url(#linear-gradient);}.cls-2{fill:#fff;}</style><linearGradient id="linear-gradient" y1="247" x2="494" y2="247" gradientUnits="userSpaceOnUse"><stop offset="0" stop-color="#e85700"/><stop offset="1" stop-color="#ffa859"/></linearGradient></defs><circle class="cls-1" cx="247" cy="247" r="247"/><path class="cls-2" d="M380.36,331.44l-43.65-43.65c7.94-15.87,13.2-34.33,13.2-52.88A112.32,112.32,0,1,0,237.59,347.23c18.55,0,37-5.27,52.88-13.2l43.65,43.65c13.2,13.19,33,13.19,46.24,0A34.39,34.39,0,0,0,380.36,331.44ZM237.59,320.83a85.92,85.92,0,1,1,85.92-85.92A85.71,85.71,0,0,1,237.59,320.83Z" transform="translate(-10.28 -8.08)"/><path class="cls-2" d="M184.2,240.87a6.46,6.46,0,0,0-1.62,4.93,6.78,6.78,0,0,0,2.34,4.6l33.25,28.48a6.63,6.63,0,0,0,4.36,1.62h.57a6.67,6.67,0,0,0,4.6-2.42l56.89-69.25a6.79,6.79,0,0,0,1.53-4.92,6.66,6.66,0,0,0-2.42-4.52l-10.41-8.55a6.68,6.68,0,0,0-9.44,1l-43.74,53.26L202.52,230a6.78,6.78,0,0,0-9.53.72Z" transform="translate(-10.28 -8.08)"/></svg>