<svg id="Layer_1" data-name="Layer 1" xmlns="http://www.w3.org/2000/svg" xmlns:xlink="http://www.w3.org/1999/xlink" viewBox="0 0 493.91 493.91"><defs><style>.cls-1{fill:url(#linear-gradient);}.cls-2{fill:#fff;}</style><linearGradient id="linear-gradient" y1="246.96" x2="493.91" y2="246.96" gradientUnits="userSpaceOnUse"><stop offset="0" stop-color="#579ef9"/><stop offset="1" stop-color="#1530fc"/></linearGradient></defs><circle class="cls-1" cx="246.96" cy="246.96" r="246.96"/><path class="cls-2" d="M368.28,229.17l-18.11-3.94a97.8,97.8,0,0,0-5.83-14.06l10-15.59a7,7,0,0,0-.94-8.79l-28.22-28.22a7,7,0,0,0-8.79-.94l-15.59,10a97.8,97.8,0,0,0-14.06-5.83l-3.94-18.11a7,7,0,0,0-6.88-5.55h-39.9a7,7,0,0,0-6.88,5.55l-3.94,18.11a97.8,97.8,0,0,0-14.06,5.83l-15.59-10a7,7,0,0,0-8.79.94l-28.22,28.22a7,7,0,0,0-.94,8.79l10,15.59a97.8,97.8,0,0,0-5.83,14.06l-18.11,3.94a7,7,0,0,0-5.55,6.88V276a7,7,0,0,0,5.55,6.88l18.11,3.94a97.8,97.8,0,0,0,5.83,14.06l-10,15.59a7,7,0,0,0,.94,8.79l28.22,28.22a7,7,0,0,0,8.79.94l15.59-10a97.8,97.8,0,0,0,14.06,5.83l3.94,18.11a7,7,0,0,0,6.88,5.55H276a7,7,0,0,0,6.88-5.55l3.94-18.11a97.8,97.8,0,0,0,14.06-5.83l15.59,10a7,7,0,0,0,8.79-.94l28.22-28.22a7,7,0,0,0,.94-8.79l-10-15.59a97.8,97.8,0,0,0,5.83-14.06l18.11-3.94a7,7,0,0,0,5.55-6.88v-39.9A7,7,0,0,0,368.28,229.17Zm-70,26.83A42.25,42.25,0,1,1,256,213.75,42.29,42.29,0,0,1,298.25,256Z" transform="translate(-10.22 -10.22)"/></svg>